<svg width="1800" height="1100" viewBox="0 0 1800 1100" fill="none" xmlns="http://www.w3.org/2000/svg">
  <rect width="1800" height="1100" fill="#F7E7D0"/>
  <defs>
    <radialGradient id="g1" cx="0" cy="0" r="1" gradientUnits="userSpaceOnUse" gradientTransform="translate(1450 180) rotate(136) scale(820 620)">
      <stop stop-color="#F7DFA8"/>
      <stop offset="1" stop-color="#F7DFA8" stop-opacity="0"/>
    </radialGradient>
    <radialGradient id="g2" cx="0" cy="0" r="1" gradientUnits="userSpaceOnUse" gradientTransform="translate(320 160) rotate(48) scale(720 520)">
      <stop stop-color="#F6CFC0"/>
      <stop offset="1" stop-color="#F6CFC0" stop-opacity="0"/>
    </radialGradient>
    <radialGradient id="g3" cx="0" cy="0" r="1" gradientUnits="userSpaceOnUse" gradientTransform="translate(980 820) rotate(90) scale(740 980)">
      <stop stop-color="#FFF8EC"/>
      <stop offset="1" stop-color="#FFF8EC" stop-opacity="0"/>
    </radialGradient>
    <linearGradient id="line" x1="0" y1="0" x2="1800" y2="1100" gradientUnits="userSpaceOnUse">
      <stop stop-color="#FFFFFF" stop-opacity="0.7"/>
      <stop offset="0.45" stop-color="#D5A24B" stop-opacity="0.22"/>
      <stop offset="1" stop-color="#7E5740" stop-opacity="0.18"/>
    </linearGradient>
  </defs>
  <rect width="1800" height="1100" fill="url(#g1)"/>
  <rect width="1800" height="1100" fill="url(#g2)"/>
  <rect width="1800" height="1100" fill="url(#g3)"/>

  <g opacity="0.35">
    <circle cx="1510" cy="250" r="210" fill="#FFF6DF"/>
    <circle cx="1510" cy="250" r="130" fill="#E5B85E" fill-opacity="0.28"/>
    <circle cx="1510" cy="250" r="58" fill="#B77A38" fill-opacity="0.16"/>
  </g>

  <g opacity="0.45">
    <path d="M-40 780C260 650 390 890 660 740C910 601 1090 448 1370 530C1570 589 1700 512 1860 410" stroke="url(#line)" stroke-width="38" stroke-linecap="round"/>
    <path d="M-90 890C250 735 470 980 760 810C1040 646 1210 596 1490 675C1660 723 1770 661 1890 586" stroke="#FFFFFF" stroke-opacity="0.32" stroke-width="18" stroke-linecap="round"/>
  </g>

  <g opacity="0.28">
    <circle cx="230" cy="820" r="4" fill="#8C5D2A"/>
    <circle cx="310" cy="710" r="3" fill="#8C5D2A"/>
    <circle cx="430" cy="780" r="5" fill="#8C5D2A"/>
    <circle cx="1240" cy="230" r="4" fill="#8C5D2A"/>
    <circle cx="1320" cy="330" r="5" fill="#8C5D2A"/>
    <circle cx="1580" cy="560" r="3" fill="#8C5D2A"/>
    <circle cx="1640" cy="680" r="5" fill="#8C5D2A"/>
  </g>

  <rect width="1800" height="1100" fill="url(#line)" opacity="0.12"/>
</svg>
