<svg width="1800" height="1100" viewBox="0 0 1800 1100" fill="none" xmlns="http://www.w3.org/2000/svg">
  <rect width="1800" height="1100" fill="#FFF6E8"/>
  <defs>
    <radialGradient id="rose" cx="0" cy="0" r="1" gradientUnits="userSpaceOnUse" gradientTransform="translate(1320 360) rotate(128) scale(760 520)">
      <stop stop-color="#F4C7B8" stop-opacity=".75"/>
      <stop offset="1" stop-color="#F4C7B8" stop-opacity="0"/>
    </radialGradient>
    <radialGradient id="gold" cx="0" cy="0" r="1" gradientUnits="userSpaceOnUse" gradientTransform="translate(980 760) rotate(90) scale(680 900)">
      <stop stop-color="#E8C98D" stop-opacity=".62"/>
      <stop offset="1" stop-color="#E8C98D" stop-opacity="0"/>
    </radialGradient>
    <radialGradient id="cream" cx="0" cy="0" r="1" gradientUnits="userSpaceOnUse" gradientTransform="translate(280 180) rotate(45) scale(680 460)">
      <stop stop-color="#FFFFFF" stop-opacity=".95"/>
      <stop offset="1" stop-color="#FFFFFF" stop-opacity="0"/>
    </radialGradient>
    <linearGradient id="metal" x1="0" x2="1" y1="0" y2="1">
      <stop stop-color="#FFF8EA"/>
      <stop offset=".45" stop-color="#D8A64C"/>
      <stop offset="1" stop-color="#9F6A2C"/>
    </linearGradient>
  </defs>

  <rect width="1800" height="1100" fill="url(#rose)"/>
  <rect width="1800" height="1100" fill="url(#gold)"/>
  <rect width="1800" height="1100" fill="url(#cream)"/>

  <g opacity=".35">
    <circle cx="1430" cy="330" r="190" fill="#FFFDF8"/>
    <circle cx="1430" cy="330" r="118" fill="#E9C27C"/>
    <circle cx="1430" cy="330" r="58" fill="#F2C8B7"/>
  </g>

  <g opacity=".55" transform="translate(1120 380) rotate(-16)">
    <rect x="0" y="0" width="92" height="520" rx="44" fill="url(#metal)"/>
    <rect x="18" y="-65" width="56" height="92" rx="22" fill="#FFF8EA"/>
    <rect x="-12" y="155" width="116" height="128" rx="30" fill="#FFF7E8" fill-opacity=".76"/>
    <text x="46" y="223" text-anchor="middle" font-family="Georgia" font-size="30" font-weight="700" fill="#4D321B">Reza</text>
  </g>

  <g opacity=".48" transform="translate(1280 210) rotate(28)">
    <rect x="0" y="0" width="42" height="500" rx="21" fill="#F0AFA0"/>
    <circle cx="21" cy="-25" r="58" fill="#FFEBD8"/>
  </g>

  <g opacity=".36" transform="translate(1480 470) rotate(18)">
    <rect x="0" y="0" width="70" height="390" rx="35" fill="#E9B09F"/>
    <rect x="19" y="-55" width="32" height="75" rx="16" fill="#3D2A24"/>
  </g>

  <g opacity=".25">
    <path d="M-60 820C230 700 410 900 700 730C980 566 1180 500 1450 620C1620 696 1730 620 1870 520" stroke="#C9943D" stroke-width="35" stroke-linecap="round"/>
    <path d="M-90 920C240 760 490 980 790 820C1060 676 1240 645 1510 725C1680 775 1800 700 1910 630" stroke="#FFFFFF" stroke-width="18" stroke-linecap="round"/>
  </g>
</svg>
